<?xml version="1.0" encoding="UTF-8" standalone="no"?>
<!-- Created with Inkscape (http://www.inkscape.org/) -->

<svg
   xmlns:dc="http://purl.org/dc/elements/1.1/"
   xmlns:cc="http://creativecommons.org/ns#"
   xmlns:rdf="http://www.w3.org/1999/02/22-rdf-syntax-ns#"
   xmlns:svg="http://www.w3.org/2000/svg"
   xmlns="http://www.w3.org/2000/svg"
   version="1.1"
   width="366.18326"
   height="284.45963"
   id="svg3260">
  <defs
     id="defs3262" />
  <metadata
     id="metadata3265">
    <rdf:RDF>
      <cc:Work
         rdf:about="">
        <dc:format>image/svg+xml</dc:format>
        <dc:type
           rdf:resource="http://purl.org/dc/dcmitype/StillImage" />
        <dc:title></dc:title>
      </cc:Work>
    </rdf:RDF>
  </metadata>
  <g
     transform="translate(-191.90837,-390.13241)"
     id="layer1">
    <g
       transform="matrix(1.25,0,0,-1.25,-283.70095,1081.5717)"
       id="g3137">
      <path
         d="m 481.88836,465.73843 c 0,40.041 26.113,73.964 62.23,85.719 -5.546,1.104 -11.283,1.694 -17.156,1.694 -48.277,0 -87.414,-39.138 -87.414,-87.413 0,-48.276 39.137,-87.413 87.414,-87.413 5.875,0 11.61,0.59 17.16,1.695 -36.121,11.754 -62.234,45.678 -62.234,85.718"
         id="path92"
         style="fill:#ef8321;fill-opacity:1;fill-rule:nonzero;stroke:none" />
      <g
         transform="translate(572.03486,540.64273)"
         id="g94">
        <path
           d="m 0,0 0,-29.831 c -13.189,0 -45.072,-8.8 -45.072,-45.073 0,-36.868 26.904,-45.074 45.072,-45.074 l 0,-29.83 c 25.371,15.299 42.338,43.118 42.338,74.904 C 42.338,-43.119 25.371,-15.301 0,0"
           id="path96"
           style="fill:#ef8321;fill-opacity:1;fill-rule:nonzero;stroke:none" />
      </g>
      <g
         transform="translate(526.96256,465.73843)"
         id="g98">
        <path
           d="m 0,0 c 0,36.273 31.883,45.073 45.072,45.073 l 0,29.831 C 36.598,80.014 27.187,83.722 17.156,85.719 -18.961,73.964 -45.074,40.041 -45.074,0 c 0,-40.04 26.113,-73.964 62.234,-85.718 10.029,1.996 19.44,5.703 27.912,10.815 l 0,29.83 C 26.904,-45.073 0,-36.868 0,0"
           id="path100"
           style="fill:#ffffff;fill-opacity:1;fill-rule:nonzero;stroke:none" />
      </g>
      <g
         transform="translate(385.04806,333.20333)"
         id="g102">
        <path
           d="m 0,0 c 0,-2.85 2.22,-3.96 4.74,-3.96 1.65,0 4.17,0.48 4.17,2.67 0,2.31 -3.21,2.7 -6.36,3.54 -3.18,0.84 -6.39,2.07 -6.39,6.09 0,4.379 4.14,6.479 8.01,6.479 4.47,0 8.58,-1.95 8.58,-6.899 l -4.56,0 c -0.15,2.58 -1.981,3.239 -4.23,3.239 -1.5,0 -3.24,-0.63 -3.24,-2.43 0,-1.649 1.02,-1.86 6.39,-3.239 1.559,-0.39 6.359,-1.381 6.359,-6.24 0,-3.93 -3.09,-6.869 -8.909,-6.869 -4.74,0 -9.18,2.34 -9.12,7.619 L 0,0 z"
           id="path104"
           style="fill:#ef8321;fill-opacity:1;fill-rule:nonzero;stroke:none" />
      </g>
      <g
         transform="translate(419.81706,334.19353)"
         id="g106">
        <path
           d="m 0,0 c 0,-5.79 -3.42,-8.609 -9.149,-8.609 -5.76,0 -9.121,2.789 -9.121,8.609 l 0,13.318 4.71,0 0,-13.318 c 0,-2.34 0.601,-4.65 4.411,-4.65 3.359,0 4.439,1.47 4.439,4.65 l 0,13.318 4.71,0 L 0,0 z"
           id="path108"
           style="fill:#ef8321;fill-opacity:1;fill-rule:nonzero;stroke:none" />
      </g>
      <g
         transform="translate(428.90786,337.43283)"
         id="g110">
        <path
           d="M 0,0 3.659,0 C 5.85,0 7.8,0.479 7.8,3.21 7.8,5.94 5.85,6.42 3.659,6.42 L 0,6.42 0,0 z m -4.71,10.079 9.659,0 c 5.34,0 7.41,-3.389 7.41,-6.869 0,-3.481 -2.07,-6.869 -7.41,-6.869 l -4.949,0 0,-7.68 -4.71,0 0,21.418 z"
           id="path112"
           style="fill:#ef8321;fill-opacity:1;fill-rule:nonzero;stroke:none" />
      </g>
      <g
         transform="translate(444.02706,347.51193)"
         id="g114">
        <path
           d="m 0,0 16.02,0 0,-3.959 -11.31,0 0,-4.59 10.38,0 0,-3.66 -10.38,0 0,-5.25 11.55,0 0,-3.959 -16.26,0 L 0,0 z"
           id="path116"
           style="fill:#ef8321;fill-opacity:1;fill-rule:nonzero;stroke:none" />
      </g>
      <g
         transform="translate(468.68716,337.82243)"
         id="g118">
        <path
           d="m 0,0 5.159,0 c 2.101,0 3.24,0.9 3.24,3.061 0,2.07 -1.139,2.969 -3.24,2.969 L 0,6.03 0,0 z m -4.71,9.689 11.55,0 c 3.839,0 6.269,-2.669 6.269,-5.909 0,-2.52 -1.02,-4.409 -3.389,-5.37 l 0,-0.059 c 2.31,-0.601 2.969,-2.851 3.119,-5.01 0.09,-1.351 0.06,-3.87 0.9,-5.07 l -4.71,0 c -0.569,1.35 -0.509,3.42 -0.75,5.129 -0.329,2.25 -1.2,3.241 -3.569,3.241 l -4.71,0 0,-8.37 -4.71,0 0,21.418 z"
           id="path120"
           style="fill:#ef8321;fill-opacity:1;fill-rule:nonzero;stroke:none" />
      </g>
      <g
         transform="translate(499.91666,340.31273)"
         id="g122">
        <path
           d="m 0,0 c -0.301,2.13 -2.34,3.75 -4.68,3.75 -4.23,0 -5.82,-3.6 -5.82,-7.35 0,-3.57 1.59,-7.17 5.82,-7.17 2.879,0 4.5,1.981 4.86,4.8 l 4.559,0 c -0.479,-5.34 -4.17,-8.759 -9.419,-8.759 -6.631,0 -10.53,4.95 -10.53,11.129 0,6.36 3.899,11.31 10.53,11.31 C 0.029,7.71 3.989,4.95 4.559,0 L 0,0 z"
           id="path124"
           style="fill:#ef8321;fill-opacity:1;fill-rule:nonzero;stroke:none" />
      </g>
      <g
         transform="translate(512.63636,334.43383)"
         id="g126">
        <path
           d="m 0,0 -7.89,13.078 5.311,0 5.01,-8.459 4.978,8.459 5.25,0 L 4.71,-0.121 4.71,-8.34 0,-8.34 0,0 z"
           id="path128"
           style="fill:#ef8321;fill-opacity:1;fill-rule:nonzero;stroke:none" />
      </g>
      <g
         transform="translate(527.51626,347.51193)"
         id="g130">
        <path
           d="m 0,0 4.711,0 0,-8.879 8.369,8.879 5.879,0 -8.369,-8.459 9.18,-12.959 -5.911,0 -6.449,9.629 -2.699,-2.73 0,-6.899 -4.711,0 L 0,0 z"
           id="path132"
           style="fill:#ef8321;fill-opacity:1;fill-rule:nonzero;stroke:none" />
      </g>
      <g
         transform="translate(549.56606,347.51193)"
         id="g134">
        <path
           d="m 0,0 16.02,0 0,-3.959 -11.31,0 0,-4.59 10.379,0 0,-3.66 -10.379,0 0,-5.25 11.549,0 0,-3.959 L 0,-21.418 0,0 z"
           id="path136"
           style="fill:#ef8321;fill-opacity:1;fill-rule:nonzero;stroke:none" />
      </g>
      <g
         transform="translate(569.51626,347.51193)"
         id="g138">
        <path
           d="m 0,0 4.709,0 0,-17.459 10.439,0 0,-3.959 L 0,-21.418 0,0 z"
           id="path140"
           style="fill:#ef8321;fill-opacity:1;fill-rule:nonzero;stroke:none" />
      </g>
      <g
         transform="translate(590.99476,333.20333)"
         id="g142">
        <path
           d="m 0,0 c 0,-2.85 2.221,-3.96 4.74,-3.96 1.651,0 4.17,0.48 4.17,2.67 0,2.31 -3.21,2.7 -6.359,3.54 -3.18,0.84 -6.391,2.07 -6.391,6.09 0,4.379 4.141,6.479 8.01,6.479 4.471,0 8.58,-1.95 8.58,-6.899 l -4.561,0 c -0.149,2.58 -1.978,3.239 -4.228,3.239 -1.5,0 -3.24,-0.63 -3.24,-2.43 0,-1.649 1.019,-1.86 6.389,-3.239 1.56,-0.39 6.36,-1.381 6.36,-6.24 0,-3.93 -3.09,-6.869 -8.909,-6.869 -4.741,0 -9.18,2.34 -9.12,7.619 L 0,0 z"
           id="path144"
           style="fill:#ef8321;fill-opacity:1;fill-rule:nonzero;stroke:none" />
      </g>
      <g
         transform="translate(612.26436,343.55293)"
         id="g146">
        <path
           d="m 0,0 -6.419,0 0,3.959 17.55,0 0,-3.959 -6.42,0 0,-17.459 -4.711,0 L 0,0 z"
           id="path148"
           style="fill:#ef8321;fill-opacity:1;fill-rule:nonzero;stroke:none" />
      </g>
      <path
         d="m 625.91426,347.51203 4.71,0 0,-21.418 -4.71,0 0,21.418 z"
         id="path150"
         style="fill:#ef8321;fill-opacity:1;fill-rule:nonzero;stroke:none" />
      <g
         transform="translate(635.03486,347.51193)"
         id="g152">
        <path
           d="m 0,0 16.02,0 0,-3.959 -11.31,0 0,-4.59 10.379,0 0,-3.66 -10.379,0 0,-5.25 11.549,0 0,-3.959 L 0,-21.418 0,0 z"
           id="path154"
           style="fill:#ef8321;fill-opacity:1;fill-rule:nonzero;stroke:none" />
      </g>
      <g
         transform="translate(659.69406,337.82243)"
         id="g156">
        <path
           d="M 0,0 5.16,0 C 7.26,0 8.4,0.9 8.4,3.061 8.4,5.131 7.26,6.03 5.16,6.03 L 0,6.03 0,0 z m -4.709,9.689 11.549,0 c 3.84,0 6.269,-2.669 6.269,-5.909 0,-2.52 -1.019,-4.409 -3.388,-5.37 l 0,-0.059 c 2.308,-0.601 2.968,-2.851 3.119,-5.01 0.09,-1.351 0.06,-3.87 0.9,-5.07 l -4.71,0 c -0.57,1.35 -0.51,3.42 -0.75,5.129 -0.33,2.25 -1.2,3.241 -3.569,3.241 l -4.711,0 0,-8.37 -4.709,0 0,21.418 z"
           id="path158"
           style="fill:#ef8321;fill-opacity:1;fill-rule:nonzero;stroke:none" />
      </g>
    </g>
  </g>
</svg>
