<?xml version="1.0" encoding="UTF-8" standalone="no"?>
<!-- Created with Inkscape (http://www.inkscape.org/) -->

<svg
   xmlns:dc="http://purl.org/dc/elements/1.1/"
   xmlns:cc="http://creativecommons.org/ns#"
   xmlns:rdf="http://www.w3.org/1999/02/22-rdf-syntax-ns#"
   xmlns:svg="http://www.w3.org/2000/svg"
   xmlns="http://www.w3.org/2000/svg"
   version="1.1"
   width="782.92633"
   height="85.657669"
   id="svg3111">
  <defs
     id="defs3113" />
  <metadata
     id="metadata3116">
    <rdf:RDF>
      <cc:Work
         rdf:about="">
        <dc:format>image/svg+xml</dc:format>
        <dc:type
           rdf:resource="http://purl.org/dc/dcmitype/StillImage" />
        <dc:title></dc:title>
      </cc:Work>
    </rdf:RDF>
  </metadata>
  <g
     transform="translate(22.177465,-280.96192)"
     id="layer1">
    <g
       transform="matrix(2.2728704,0,0,-2.2728704,-183.24715,667.53922)"
       id="g3173">
      <g
         transform="translate(386.7734,151.2393)"
         id="g20">
        <path
           d="m 0,0 c 0,8.632 5.629,15.944 13.414,18.479 -1.195,0.238 -2.432,0.365 -3.697,0.365 -10.408,0 -18.844,-8.438 -18.844,-18.844 0,-10.406 8.436,-18.843 18.844,-18.843 1.265,0 2.502,0.127 3.699,0.365 C 5.629,-15.943 0,-8.631 0,0"
           id="path22"
           style="fill:#ef8321;fill-opacity:1;fill-rule:nonzero;stroke:none" />
      </g>
      <g
         transform="translate(406.2051,167.3857)"
         id="g24">
        <path
           d="m 0,0 0,-6.43 c -2.842,0 -9.715,-1.896 -9.715,-9.716 0,-7.948 5.799,-9.716 9.715,-9.716 l 0,-6.431 c 5.469,3.299 9.127,9.295 9.127,16.147 C 9.127,-9.295 5.469,-3.297 0,0"
           id="path26"
           style="fill:#ef8321;fill-opacity:1;fill-rule:nonzero;stroke:none" />
      </g>
      <g
         transform="translate(396.4902,151.2393)"
         id="g28">
        <path
           d="m 0,0 c 0,7.82 6.873,9.717 9.715,9.717 l 0,6.43 C 7.889,17.248 5.859,18.048 3.697,18.479 -4.088,15.944 -9.717,8.632 -9.717,0 c 0,-8.631 5.629,-15.943 13.414,-18.478 2.162,0.431 4.192,1.23 6.018,2.332 l 0,6.43 C 5.799,-9.716 0,-7.947 0,0"
           id="path30"
           style="fill:#ffffff;fill-opacity:1;fill-rule:nonzero;stroke:none" />
      </g>
      <g
         transform="translate(75.4268,147.6396)"
         id="g32">
        <path
           d="m 0,0 c 0,-2.85 2.22,-3.96 4.74,-3.96 1.65,0 4.17,0.48 4.17,2.67 0,2.31 -3.21,2.7 -6.36,3.54 -3.18,0.84 -6.39,2.07 -6.39,6.09 0,4.379 4.14,6.479 8.01,6.479 4.47,0 8.58,-1.95 8.58,-6.899 l -4.56,0 c -0.15,2.58 -1.981,3.239 -4.23,3.239 -1.5,0 -3.24,-0.63 -3.24,-2.43 0,-1.649 1.02,-1.86 6.39,-3.239 1.559,-0.39 6.359,-1.381 6.359,-6.24 0,-3.93 -3.09,-6.869 -8.909,-6.869 -4.74,0 -9.18,2.34 -9.12,7.619 L 0,0 z"
           id="path34"
           style="fill:#ef8321;fill-opacity:1;fill-rule:nonzero;stroke:none" />
      </g>
      <g
         transform="translate(110.1958,148.6299)"
         id="g36">
        <path
           d="m 0,0 c 0,-5.79 -3.42,-8.609 -9.149,-8.609 -5.76,0 -9.121,2.789 -9.121,8.609 l 0,13.318 4.71,0 0,-13.318 c 0,-2.34 0.601,-4.65 4.411,-4.65 3.359,0 4.439,1.47 4.439,4.65 l 0,13.318 4.71,0 L 0,0 z"
           id="path38"
           style="fill:#ef8321;fill-opacity:1;fill-rule:nonzero;stroke:none" />
      </g>
      <g
         transform="translate(119.2866,151.8691)"
         id="g40">
        <path
           d="M 0,0 3.659,0 C 5.85,0 7.8,0.479 7.8,3.21 7.8,5.94 5.85,6.42 3.659,6.42 L 0,6.42 0,0 z m -4.71,10.079 9.659,0 c 5.34,0 7.41,-3.389 7.41,-6.869 0,-3.481 -2.07,-6.869 -7.41,-6.869 l -4.949,0 0,-7.68 -4.71,0 0,21.418 z"
           id="path42"
           style="fill:#ef8321;fill-opacity:1;fill-rule:nonzero;stroke:none" />
      </g>
      <g
         transform="translate(134.4058,161.9482)"
         id="g44">
        <path
           d="m 0,0 16.02,0 0,-3.959 -11.31,0 0,-4.59 10.38,0 0,-3.66 -10.38,0 0,-5.25 11.55,0 0,-3.959 -16.26,0 L 0,0 z"
           id="path46"
           style="fill:#ef8321;fill-opacity:1;fill-rule:nonzero;stroke:none" />
      </g>
      <g
         transform="translate(159.0659,152.2588)"
         id="g48">
        <path
           d="m 0,0 5.159,0 c 2.101,0 3.24,0.9 3.24,3.061 0,2.07 -1.139,2.969 -3.24,2.969 L 0,6.03 0,0 z m -4.71,9.689 11.55,0 c 3.839,0 6.269,-2.669 6.269,-5.909 0,-2.52 -1.02,-4.409 -3.389,-5.37 l 0,-0.059 c 2.31,-0.601 2.969,-2.851 3.119,-5.01 0.09,-1.351 0.06,-3.87 0.9,-5.07 l -4.71,0 c -0.569,1.35 -0.509,3.42 -0.75,5.129 -0.329,2.25 -1.2,3.241 -3.569,3.241 l -4.71,0 0,-8.37 -4.71,0 0,21.418 z"
           id="path50"
           style="fill:#ef8321;fill-opacity:1;fill-rule:nonzero;stroke:none" />
      </g>
      <g
         transform="translate(190.2954,154.749)"
         id="g52">
        <path
           d="m 0,0 c -0.301,2.13 -2.34,3.75 -4.68,3.75 -4.23,0 -5.82,-3.6 -5.82,-7.35 0,-3.57 1.59,-7.17 5.82,-7.17 2.879,0 4.5,1.981 4.86,4.8 l 4.559,0 c -0.479,-5.34 -4.17,-8.759 -9.419,-8.759 -6.631,0 -10.53,4.95 -10.53,11.129 0,6.36 3.899,11.31 10.53,11.31 C 0.029,7.71 3.989,4.95 4.559,0 L 0,0 z"
           id="path54"
           style="fill:#ef8321;fill-opacity:1;fill-rule:nonzero;stroke:none" />
      </g>
      <g
         transform="translate(203.0151,148.8701)"
         id="g56">
        <path
           d="m 0,0 -7.89,13.078 5.311,0 5.01,-8.459 4.978,8.459 5.25,0 L 4.71,-0.121 4.71,-8.34 0,-8.34 0,0 z"
           id="path58"
           style="fill:#ef8321;fill-opacity:1;fill-rule:nonzero;stroke:none" />
      </g>
      <g
         transform="translate(217.895,161.9482)"
         id="g60">
        <path
           d="m 0,0 4.711,0 0,-8.879 8.369,8.879 5.879,0 -8.369,-8.459 9.18,-12.959 -5.911,0 -6.449,9.629 -2.699,-2.73 0,-6.899 -4.711,0 L 0,0 z"
           id="path62"
           style="fill:#ef8321;fill-opacity:1;fill-rule:nonzero;stroke:none" />
      </g>
      <g
         transform="translate(239.9448,161.9482)"
         id="g64">
        <path
           d="m 0,0 16.02,0 0,-3.959 -11.31,0 0,-4.59 10.379,0 0,-3.66 -10.379,0 0,-5.25 11.549,0 0,-3.959 L 0,-21.418 0,0 z"
           id="path66"
           style="fill:#ef8321;fill-opacity:1;fill-rule:nonzero;stroke:none" />
      </g>
      <g
         transform="translate(259.895,161.9482)"
         id="g68">
        <path
           d="m 0,0 4.709,0 0,-17.459 10.439,0 0,-3.959 L 0,-21.418 0,0 z"
           id="path70"
           style="fill:#ef8321;fill-opacity:1;fill-rule:nonzero;stroke:none" />
      </g>
      <g
         transform="translate(281.3735,147.6396)"
         id="g72">
        <path
           d="m 0,0 c 0,-2.85 2.221,-3.96 4.74,-3.96 1.651,0 4.17,0.48 4.17,2.67 0,2.31 -3.21,2.7 -6.359,3.54 -3.18,0.84 -6.391,2.07 -6.391,6.09 0,4.379 4.141,6.479 8.01,6.479 4.471,0 8.58,-1.95 8.58,-6.899 l -4.561,0 c -0.149,2.58 -1.978,3.239 -4.228,3.239 -1.5,0 -3.24,-0.63 -3.24,-2.43 0,-1.649 1.019,-1.86 6.389,-3.239 1.56,-0.39 6.36,-1.381 6.36,-6.24 0,-3.93 -3.09,-6.869 -8.909,-6.869 -4.741,0 -9.18,2.34 -9.12,7.619 L 0,0 z"
           id="path74"
           style="fill:#ef8321;fill-opacity:1;fill-rule:nonzero;stroke:none" />
      </g>
      <g
         transform="translate(302.6431,157.9893)"
         id="g76">
        <path
           d="m 0,0 -6.419,0 0,3.959 17.55,0 0,-3.959 -6.42,0 0,-17.459 -4.711,0 L 0,0 z"
           id="path78"
           style="fill:#ef8321;fill-opacity:1;fill-rule:nonzero;stroke:none" />
      </g>
      <path
         d="m 316.293,161.948 4.71,0 0,-21.418 -4.71,0 0,21.418 z"
         id="path80"
         style="fill:#ef8321;fill-opacity:1;fill-rule:nonzero;stroke:none" />
      <g
         transform="translate(325.4136,161.9482)"
         id="g82">
        <path
           d="m 0,0 16.02,0 0,-3.959 -11.31,0 0,-4.59 10.379,0 0,-3.66 -10.379,0 0,-5.25 11.549,0 0,-3.959 L 0,-21.418 0,0 z"
           id="path84"
           style="fill:#ef8321;fill-opacity:1;fill-rule:nonzero;stroke:none" />
      </g>
      <g
         transform="translate(350.0728,152.2588)"
         id="g86">
        <path
           d="M 0,0 5.16,0 C 7.26,0 8.4,0.9 8.4,3.061 8.4,5.131 7.26,6.03 5.16,6.03 L 0,6.03 0,0 z m -4.709,9.689 11.549,0 c 3.84,0 6.269,-2.669 6.269,-5.909 0,-2.52 -1.019,-4.409 -3.388,-5.37 l 0,-0.059 c 2.308,-0.601 2.968,-2.851 3.119,-5.01 0.09,-1.351 0.06,-3.87 0.9,-5.07 l -4.71,0 c -0.57,1.35 -0.51,3.42 -0.75,5.129 -0.33,2.25 -1.2,3.241 -3.569,3.241 l -4.711,0 0,-8.37 -4.709,0 0,21.418 z"
           id="path88"
           style="fill:#ef8321;fill-opacity:1;fill-rule:nonzero;stroke:none" />
      </g>
    </g>
  </g>
</svg>
